<svg aria-hidden="true" style="position: absolute; width: 0; height: 0; overflow: hidden;" version="1.1" xmlns="http://www.w3.org/2000/svg" xmlns:xlink="http://www.w3.org/1999/xlink">
<defs>
<symbol id="icon-linkedin-1" viewBox="0 0 32 32">
<path d="M27.293 2.667h-22.587c-0.008-0-0.017-0-0.027-0-1.058 0-1.918 0.851-1.933 1.905l-0 0.001v22.853c0.015 1.056 0.875 1.907 1.933 1.907 0.009 0 0.019-0 0.028-0l-0.001 0h22.587c0.008 0 0.017 0 0.027 0 1.058 0 1.918-0.851 1.933-1.905l0-0.001v-22.853c-0.015-1.056-0.875-1.907-1.933-1.907-0.009 0-0.019 0-0.028 0l0.001-0zM10.787 24.987h-4v-12h4zM8.787 11.307v0c-1.149 0-2.080-0.931-2.080-2.080s0.931-2.080 2.080-2.080v0c0.071-0.008 0.153-0.013 0.236-0.013 1.156 0 2.093 0.937 2.093 2.093s-0.937 2.093-2.093 2.093c-0.083 0-0.165-0.005-0.246-0.014l0.010 0.001zM25.213 24.987h-4v-6.44c0-1.613-0.573-2.667-2.027-2.667-0.941 0.007-1.74 0.604-2.048 1.438l-0.005 0.015c-0.087 0.251-0.137 0.541-0.137 0.842 0 0.046 0.001 0.092 0.003 0.137l-0-0.006v6.667h-4s0-10.907 0-12h4v1.693c0.704-1.206 1.992-2.003 3.466-2.003 0.052 0 0.104 0.001 0.155 0.003l-0.007-0c2.667 0 4.6 1.72 4.6 5.413z"></path>
</symbol>
<symbol id="icon-telegram" viewBox="0 0 32 32">
<path d="M29.686 3.237c-0.47-0.393-1.080-0.632-1.747-0.632-0.369 0-0.721 0.073-1.042 0.206l0.018-0.007-23.895 9.647c-0.999 0.419-1.688 1.389-1.688 2.519 0 1.183 0.754 2.19 1.808 2.566l0.019 0.006 4.833 1.681 2.694 8.909c0.040 0.128 0.094 0.24 0.161 0.341l-0.003-0.005c0.010 0.016 0.025 0.028 0.036 0.043 0.080 0.111 0.173 0.206 0.279 0.285l0.003 0.002c0.031 0.023 0.060 0.045 0.093 0.066 0.119 0.080 0.257 0.142 0.405 0.18l0.009 0.002 0.016 0.001 0.009 0.004c0.081 0.017 0.174 0.027 0.269 0.027h0c0.009 0 0.016-0.004 0.025-0.004 0.144-0.003 0.282-0.028 0.411-0.073l-0.009 0.003c0.030-0.010 0.056-0.027 0.085-0.040 0.104-0.044 0.194-0.095 0.276-0.155l-0.004 0.003c-0.422 0.347-0.356 0.291-0.29 0.235l0.493-0.406 3.603-3.978 5.374 4.163c0.452 0.354 1.028 0.568 1.655 0.569h0c1.312-0.002 2.408-0.926 2.674-2.159l0.003-0.018 4.35-21.355c0.035-0.163 0.055-0.351 0.055-0.544 0-0.836-0.379-1.584-0.975-2.080l-0.004-0.004zM12.493 19.648c-0.179 0.179-0.308 0.409-0.362 0.666l-0.002 0.009-0.413 2.005-1.045-3.457 5.42-2.823zM23.563 26.72l-6.35-4.919c-0.223-0.174-0.508-0.279-0.816-0.279-0.391 0-0.743 0.168-0.987 0.436l-0.001 0.001-1.154 1.274 0.408-1.982 9.444-9.444c0.242-0.241 0.391-0.575 0.391-0.943 0-0.736-0.597-1.333-1.333-1.333-0.225 0-0.438 0.056-0.624 0.155l0.007-0.004-13.554 7.057-4.966-1.817 23.971-9.59z"></path>
</symbol>
<symbol id="icon-email" viewBox="0 0 32 32">
<path d="M10.896 16l-8.016 5.219v-10.438l8.016 5.219zM21.104 16l8.016 5.219v-10.438l-8.016 5.219zM19.933 16.765l-3.584 2.333c-0.106 0.067-0.227 0.102-0.349 0.102s-0.243-0.035-0.349-0.102l-3.584-2.333-9.158 5.962c0.157 0.902 0.944 1.594 1.891 1.594h22.4c0.947 0 1.734-0.688 1.891-1.594l-0.506-0.326-8.653-5.635zM16 17.795l13.091-8.522c-0.157-0.906-0.944-1.594-1.891-1.594h-22.4c-0.947 0-1.734 0.691-1.891 1.594l0.502 0.326 12.589 8.195z"></path>
</symbol>
<symbol id="icon-phone" viewBox="0 0 32 32">
<path d="M17.333 10.667c2.209 0 4 1.791 4 4v0c0 0.736 0.597 1.333 1.333 1.333s1.333-0.597 1.333-1.333v0c0-3.682-2.985-6.667-6.667-6.667v0c-0.736 0-1.333 0.597-1.333 1.333s0.597 1.333 1.333 1.333v0z"></path>
<path d="M17.333 5.333c5.155 0 9.333 4.179 9.333 9.333v0c0 0.736 0.597 1.333 1.333 1.333s1.333-0.597 1.333-1.333v0c0-6.627-5.373-12-12-12v0c-0.736 0-1.333 0.597-1.333 1.333s0.597 1.333 1.333 1.333v0zM29 21.213c-0.152-0.433-0.508-0.759-0.951-0.865l-0.009-0.002-8-1.827c-0.089-0.021-0.19-0.033-0.295-0.033-0.363 0-0.692 0.145-0.932 0.38l0-0c-0.187 0.173-0.2 0.187-1.067 1.84-2.886-1.352-5.153-3.627-6.459-6.439l-0.034-0.082c1.693-0.853 1.707-0.853 1.88-1.053 0.235-0.24 0.38-0.569 0.38-0.932 0-0.105-0.012-0.206-0.035-0.304l0.002 0.009-1.827-7.907c-0.107-0.452-0.433-0.808-0.857-0.957l-0.009-0.003c-0.274-0.102-0.598-0.186-0.932-0.236l-0.028-0.004c-0.304-0.074-0.657-0.122-1.018-0.133l-0.008-0c-3.387 0-6.133 2.746-6.133 6.133v0c0.015 11.334 9.199 20.518 20.532 20.533h0.001c3.387 0 6.133-2.746 6.133-6.133v0c0-0.002 0-0.005 0-0.008 0-0.355-0.029-0.703-0.085-1.043l0.005 0.037c-0.064-0.372-0.152-0.699-0.266-1.014l0.013 0.040z"></path>
</symbol>
<symbol id="icon-github-logo" viewBox="0 0 32 32">
<path d="M32 16.571c0-8.837-7.163-16-16-16s-16 7.163-16 16c0 7.11 4.641 13.129 11.056 15.213 0.877-0.269 0.918-0.802 0.918-0.802s0-1.581 0-3.041c-0.963 0.177-2.16 0.179-2.595 0.179-0.53 0-2.296-0.441-3.073-2.437s-2.225-2.19-2.225-2.543 0.318-0.424 0.318-0.424 0.194 0 1.059 0c0.865 0 1.73 1.448 2.331 2.331s2.048 1.059 2.755 1.059c0.397 0 1.011-0.2 1.479-0.376 0.191-1.237 0.905-2.167 0.905-2.167-7.135-0.635-7.311-5.969-7.311-8.053s1.696-4.133 1.696-4.133-0.822-2.331 0.211-4.239c2.225 0.017 4.45 1.695 4.45 1.695s2.011-0.634 4.025-0.634 4.026 0.635 4.026 0.635 2.225-1.678 4.45-1.695c1.033 1.907 0.211 4.239 0.211 4.239s1.696 2.048 1.696 4.133c0 2.083-0.177 7.417-7.311 8.053 0 0 0.953 1.237 0.953 2.755s0 4.663 0 4.663 0.040 0.533 0.918 0.802c6.415-2.086 11.056-8.105 11.056-15.215z"></path>
</symbol>
</defs>
</svg>